<svg preserveAspectRatio="none" overflow="visible" style="display: block;" width="9.12528" height="6.97815" viewBox="0 0 9.12528 6.97815" fill="none" xmlns="http://www.w3.org/2000/svg">
<path id="Vector" d="M0 0.581513C0 0.427286 0.0600883 0.279376 0.167046 0.170321C0.274003 0.0612665 0.419069 0 0.57033 0H1.14066C1.29192 0 1.43699 0.0612665 1.54394 0.170321C1.6509 0.279376 1.71099 0.427286 1.71099 0.581513C1.71099 0.73574 1.6509 0.883649 1.54394 0.992704C1.43699 1.10176 1.29192 1.16303 1.14066 1.16303H0.57033C0.419069 1.16303 0.274003 1.10176 0.167046 0.992704C0.0600883 0.883649 0 0.73574 0 0.581513ZM2.85165 0.581513C2.85165 0.427286 2.91174 0.279376 3.0187 0.170321C3.12565 0.0612665 3.27072 0 3.42198 0H8.55495C8.70621 0 8.85127 0.0612665 8.95823 0.170321C9.06519 0.279376 9.12528 0.427286 9.12528 0.581513C9.12528 0.73574 9.06519 0.883649 8.95823 0.992704C8.85127 1.10176 8.70621 1.16303 8.55495 1.16303H3.42198C3.27072 1.16303 3.12565 1.10176 3.0187 0.992704C2.91174 0.883649 2.85165 0.73574 2.85165 0.581513ZM0 3.48908C0 3.33485 0.0600883 3.18694 0.167046 3.07788C0.274003 2.96883 0.419069 2.90756 0.57033 2.90756H1.14066C1.29192 2.90756 1.43699 2.96883 1.54394 3.07788C1.6509 3.18694 1.71099 3.33485 1.71099 3.48908C1.71099 3.6433 1.6509 3.79121 1.54394 3.90027C1.43699 4.00932 1.29192 4.07059 1.14066 4.07059H0.57033C0.419069 4.07059 0.274003 4.00932 0.167046 3.90027C0.0600883 3.79121 0 3.6433 0 3.48908ZM2.85165 3.48908C2.85165 3.33485 2.91174 3.18694 3.0187 3.07788C3.12565 2.96883 3.27072 2.90756 3.42198 2.90756H8.55495C8.70621 2.90756 8.85127 2.96883 8.95823 3.07788C9.06519 3.18694 9.12528 3.33485 9.12528 3.48908C9.12528 3.6433 9.06519 3.79121 8.95823 3.90027C8.85127 4.00932 8.70621 4.07059 8.55495 4.07059H3.42198C3.27072 4.07059 3.12565 4.00932 3.0187 3.90027C2.91174 3.79121 2.85165 3.6433 2.85165 3.48908ZM0 6.39664C0 6.24241 0.0600883 6.0945 0.167046 5.98545C0.274003 5.87639 0.419069 5.81513 0.57033 5.81513H1.14066C1.29192 5.81513 1.43699 5.87639 1.54394 5.98545C1.6509 6.0945 1.71099 6.24241 1.71099 6.39664C1.71099 6.55087 1.6509 6.69878 1.54394 6.80783C1.43699 6.91689 1.29192 6.97815 1.14066 6.97815H0.57033C0.419069 6.97815 0.274003 6.91689 0.167046 6.80783C0.0600883 6.69878 0 6.55087 0 6.39664ZM2.85165 6.39664C2.85165 6.24241 2.91174 6.0945 3.0187 5.98545C3.12565 5.87639 3.27072 5.81513 3.42198 5.81513H8.55495C8.70621 5.81513 8.85127 5.87639 8.95823 5.98545C9.06519 6.0945 9.12528 6.24241 9.12528 6.39664C9.12528 6.55087 9.06519 6.69878 8.95823 6.80783C8.85127 6.91689 8.70621 6.97815 8.55495 6.97815H3.42198C3.27072 6.97815 3.12565 6.91689 3.0187 6.80783C2.91174 6.69878 2.85165 6.55087 2.85165 6.39664Z" fill="#A7BCE4"/>
</svg>
